GRF
version=1
nRows=37
nColumns=19
inDegrees=no
endheader
time	1_ground_force_vx	1_ground_force_vy	1_ground_force_vz	1_ground_force_px	1_ground_force_py	1_ground_force_pz	1_ground_torque_x	1_ground_torque_y	1_ground_torque_z	2_ground_force_vx	2_ground_force_vy	2_ground_force_vz	2_ground_force_px	2_ground_force_py	2_ground_force_pz	2_ground_torque_x	2_ground_torque_y	2_ground_torque_z
      2.00000000	      1.73403631	      0.71527329	     -0.29637733	      0.07170977	      0.00000000	      0.10693050	     -0.00000000	      0.34399542	      0.00000000	      0.00000000	      0.00000000	      0.00000000	      0.00000000	      0.00000000	      0.00000000	      0.00000000	      0.00000000	      0.00000000
      2.00100000	      1.37355159	      0.96505227	      0.28160315	      0.25318065	      0.00000000	      0.18439478	      0.00000000	      0.10697650	      0.00000000	      0.00000000	      0.00000000	      0.00000000	      0.00000000	      0.00000000	      0.00000000	      0.00000000	      0.00000000	      0.00000000
      2.00200000	      1.20521404	      1.78413329	      0.44726922	      0.25228108	      0.00000000	      0.15358501	      0.00000000	      0.07464508	      0.00000000	      0.00000000	      0.00000000	      0.00000000	      0.00000000	      0.00000000	      0.00000000	      0.00000000	      0.00000000	      0.00000000
      2.00300000	      0.94388079	      2.31806840	     -0.36234122	      0.21855481	      0.00000000	      0.12581632	      0.00000000	      0.04912361	     -0.00000000	      0.00000000	      0.00000000	      0.00000000	      0.00000000	      0.00000000	      0.00000000	      0.00000000	      0.00000000	      0.00000000
      2.00400000	      0.89614042	      2.29169508	     -1.05461611	      0.24638963	      0.00000000	      0.11709042	     -0.00000000	     -0.01336833	     -0.00000000	      0.00000000	      0.00000000	      0.00000000	      0.00000000	      0.00000000	      0.00000000	      0.00000000	      0.00000000	      0.00000000
      2.00500000	      1.34201739	      2.49713316	     -0.87438733	      0.24094599	      0.00000000	      0.15306368	     -0.00000000	     -0.04565516	     -0.00000000	      0.00000000	      0.00000000	      0.00000000	      0.00000000	      0.00000000	      0.00000000	      0.00000000	      0.00000000	      0.00000000
      2.00600000	      1.74439181	      2.12946058	     -0.33510648	      0.11997315	      0.00000000	      0.22813625	     -0.00000000	     -0.07518251	     -0.00000000	      0.00000000	      0.00000000	      0.00000000	      0.00000000	      0.00000000	      0.00000000	      0.00000000	      0.00000000	      0.00000000
      2.00700000	      1.67061041	      0.85570374	     -0.07539212	     -0.02062922	      0.00000000	      0.34773302	     -0.00000000	     -0.19196744	      0.00000000	      0.00000000	      0.00000000	      0.00000000	      0.00000000	      0.00000000	      0.00000000	      0.00000000	      0.00000000	      0.00000000
      2.00800000	      1.48820592	      0.27363316	      0.04889070	     -0.08792311	      0.00000000	      0.26657661	      0.00000000	     -0.08917547	      0.00000000	      0.00000000	      0.00000000	      0.00000000	      0.00000000	      0.00000000	      0.00000000	      0.00000000	      0.00000000	      0.00000000
      2.00900000	      1.65679625	      0.91243911	      0.17784088	     -0.10476793	      0.00000000	      0.07402298	      0.00000000	      0.13306084	      0.00000000	      0.00000000	      0.00000000	      0.00000000	      0.00000000	      0.00000000	      0.00000000	      0.00000000	      0.00000000	      0.00000000
      2.01000000	      1.76674988	      1.58472163	     -0.19028722	      0.02351382	      0.00000000	     -0.00367640	      0.00000000	      0.26051621	      0.00000000	      0.00000000	      0.00000000	      0.00000000	      0.00000000	      0.00000000	      0.00000000	      0.00000000	      0.00000000	      0.00000000
      2.01100000	      1.51075863	      1.43549115	     -0.75807099	      0.16819194	      0.00000000	     -0.38476894	     -0.00000000	      0.75844384	      0.00000000	      0.00000000	      0.00000000	      0.00000000	      0.00000000	      0.00000000	      0.00000000	      0.00000000	      0.00000000	      0.00000000
      2.01200000	      1.65140349	      1.12328586	     -0.72067785	      0.25209479	      0.00000000	     -0.69755853	     -0.00000000	      1.15032174	      0.00000000	      0.00000000	      0.00000000	      0.00000000	      0.00000000	      0.00000000	      0.00000000	      0.00000000	      0.00000000	      0.00000000
      2.01300000	      2.20314257	      1.43483435	     -0.45230140	      0.23277658	      0.00000000	     -0.27346746	     -0.00000000	      0.69106249	      0.00000000	      0.00000000	      0.00000000	      0.00000000	      0.00000000	      0.00000000	      0.00000000	      0.00000000	      0.00000000	      0.00000000
      2.01400000	      2.13683519	      1.46594483	     -0.30848017	      0.19816359	      0.00000000	      0.32135964	     -0.00000000	      0.01436371	      0.00000000	      0.00000000	      0.00000000	      0.00000000	      0.00000000	      0.00000000	      0.00000000	      0.00000000	      0.00000000	      0.00000000
      2.01500000	      1.48584021	      1.12280664	     -0.18920643	      0.22557410	      0.00000000	      0.60934198	     -0.00000000	     -0.33096281	      0.00000000	      0.00000000	      0.00000000	      0.00000000	      0.00000000	      0.00000000	      0.00000000	      0.00000000	      0.00000000	      0.00000000
      2.01600000	      1.06373315	      1.76063773	     -0.11706268	      0.26516825	      0.00000000	      0.39664017	     -0.00000000	     -0.16158152	      0.00000000	      0.00000000	      0.00000000	      0.00000000	      0.00000000	      0.00000000	      0.00000000	      0.00000000	      0.00000000	      0.00000000
      2.01700000	      0.94408787	      2.62758770	      0.18647148	      0.24437744	      0.00000000	      0.19376936	     -0.00000000	      0.02488585	      0.00000000	      0.00000000	      0.00000000	      0.00000000	      0.00000000	      0.00000000	      0.00000000	      0.00000000	      0.00000000	      0.00000000
      2.01800000	      1.06279709	      2.28910838	      0.48198664	      0.22980216	      0.00000000	      0.08733247	      0.00000000	      0.13593669	      0.00000000	      0.00000000	      0.00000000	      0.00000000	      0.00000000	      0.00000000	      0.00000000	      0.00000000	      0.00000000	      0.00000000
      2.01900000	      1.12839370	      1.57051833	      0.25132835	      0.21247482	      0.00000000	     -0.06413309	      0.00000000	      0.28710713	      0.00000000	      0.00000000	      0.00000000	      0.00000000	      0.00000000	      0.00000000	      0.00000000	      0.00000000	      0.00000000	      0.00000000
      2.02000000	      1.10841601	      1.30901919	     -0.05602427	      0.18209646	      0.00000000	     -0.16561310	      0.00000000	      0.35054049	     -0.00000000	      0.00000000	      0.00000000	      0.00000000	      0.00000000	      0.00000000	      0.00000000	      0.00000000	      0.00000000	      0.00000000
      2.02100000	      1.38097753	      1.75461675	      0.10400743	      0.18258924	      0.00000000	     -0.06493650	     -0.00000000	      0.23052300	     -0.00000000	      0.00000000	      0.00000000	      0.00000000	      0.00000000	      0.00000000	      0.00000000	      0.00000000	      0.00000000	      0.00000000
      2.02200000	      1.49863356	      2.26275536	      0.22610762	      0.19528387	      0.00000000	      0.10246838	     -0.00000000	      0.07439462	     -0.00000000	      0.00000000	      0.00000000	      0.00000000	      0.00000000	      0.00000000	      0.00000000	      0.00000000	      0.00000000	      0.00000000
      2.02300000	      1.10164400	      1.89967879	      0.12833967	      0.19935428	      0.00000000	      0.12947794	     -0.00000000	      0.05960303	     -0.00000000	      0.00000000	      0.00000000	      0.00000000	      0.00000000	      0.00000000	      0.00000000	      0.00000000	      0.00000000	      0.00000000
      2.02400000	      0.95366291	      1.48456326	      0.15425996	      0.23404951	      0.00000000	      0.08461551	     -0.00000000	      0.12323900	     -0.00000000	      0.00000000	      0.00000000	      0.00000000	      0.00000000	      0.00000000	      0.00000000	      0.00000000	      0.00000000	      0.00000000
      2.02500000	      1.29034827	      1.71784415	      0.29551597	      0.24993953	      0.00000000	      0.12081697	     -0.00000000	      0.08621619	     -0.00000000	      0.00000000	      0.00000000	      0.00000000	      0.00000000	      0.00000000	      0.00000000	      0.00000000	      0.00000000	      0.00000000
      2.02600000	      1.48141569	      1.75163492	      0.07655180	      0.25142748	      0.00000000	      0.14554037	     -0.00000000	      0.03107867	     -0.00000000	      0.00000000	      0.00000000	      0.00000000	      0.00000000	      0.00000000	      0.00000000	      0.00000000	      0.00000000	      0.00000000
      2.02700000	      1.13857606	      1.39261405	     -0.16628413	      0.28159236	      0.00000000	      0.08462304	      0.00000000	      0.06593069	     -0.00000000	      0.00000000	      0.00000000	      0.00000000	      0.00000000	      0.00000000	      0.00000000	      0.00000000	      0.00000000	      0.00000000
      2.02800000	      0.73570791	      1.68794533	      0.02135150	      0.29329952	      0.00000000	      0.09168584	      0.00000000	      0.05814859	     -0.00000000	      0.00000000	      0.00000000	      0.00000000	      0.00000000	      0.00000000	      0.00000000	      0.00000000	      0.00000000	      0.00000000
      2.02900000	      0.66135240	      2.49035453	      0.16574241	      0.26962785	      0.00000000	      0.16464602	      0.00000000	     -0.00120539	     -0.00000000	      0.00000000	      0.00000000	      0.00000000	      0.00000000	      0.00000000	      0.00000000	      0.00000000	      0.00000000	      0.00000000
      2.03000000	      0.64941590	      2.57973480	      0.02520957	      0.25423374	      0.00000000	      0.19448610	     -0.00000000	     -0.02753360	     -0.00000000	      0.00000000	      0.00000000	      0.00000000	      0.00000000	      0.00000000	      0.00000000	      0.00000000	      0.00000000	      0.00000000
      2.03100000	      0.78391683	      2.16572848	     -0.28025454	      0.26912357	      0.00000000	      0.17685392	     -0.00000000	     -0.01068006	     -0.00000000	      0.00000000	      0.00000000	      0.00000000	      0.00000000	      0.00000000	      0.00000000	      0.00000000	      0.00000000	      0.00000000
      2.03200000	      1.14941838	      2.05293567	     -0.17000169	      0.24701618	      0.00000000	      0.17695111	     -0.00000000	     -0.01331691	     -0.00000000	      0.00000000	      0.00000000	      0.00000000	      0.00000000	      0.00000000	      0.00000000	      0.00000000	      0.00000000	      0.00000000
      2.03300000	      1.59213729	      1.83081133	      0.40139968	      0.19466027	      0.00000000	      0.20103022	     -0.00000000	     -0.04438930	     -0.00000000	      0.00000000	      0.00000000	      0.00000000	      0.00000000	      0.00000000	      0.00000000	      0.00000000	      0.00000000	      0.00000000
      2.03400000	      1.56358344	      1.60122874	      0.48606515	      0.22327474	      0.00000000	      0.15387295	     -0.00000000	      0.03274753	     -0.00000000	      0.00000000	      0.00000000	      0.00000000	      0.00000000	      0.00000000	      0.00000000	      0.00000000	      0.00000000	      0.00000000
      2.03500000	      0.96198873	      1.12863239	      0.13078324	      0.30343693	      0.00000000	      0.14112969	      0.00000000	      0.14320271	     -0.00000000	      0.00000000	      0.00000000	      0.00000000	      0.00000000	      0.00000000	      0.00000000	      0.00000000	      0.00000000	      0.00000000
      2.03600000	      0.66060205	      0.82436833	      0.34641631	      0.36825185	      0.00000000	      0.27670680	      0.00000000	      0.10269170	     -0.00000000	      0.00000000	      0.00000000	      0.00000000	      0.00000000	      0.00000000	      0.00000000	      0.00000000	      0.00000000	      0.00000000
